<?xml version="1.0" encoding="utf-8"?>
<!-- Generator: Adobe Illustrator 16.0.0, SVG Export Plug-In . SVG Version: 6.00 Build 0)  -->
<!DOCTYPE svg PUBLIC "-//W3C//DTD SVG 1.1//EN" "http://www.w3.org/Graphics/SVG/1.1/DTD/svg11.dtd">
<svg version="1.1" xmlns="http://www.w3.org/2000/svg" xmlns:xlink="http://www.w3.org/1999/xlink" x="0px" y="0px"
	 width="80.601px" height="395.592px" viewBox="0 0 80.601 395.592" enable-background="new 0 0 80.601 395.592"
	 xml:space="preserve">
<g id="PCB">
</g>
<g id="cut">
	<rect x="13.908" y="7.366" fill="none" stroke="#ED1C24" stroke-width="0.005" width="43.086" height="364.253"/>
	<path fill="none" stroke="#ED1C24" stroke-width="0.005" stroke-miterlimit="22.9256" d="M41.033,15.871
		c0,2.505-2.031,4.535-4.537,4.535h-2.834c-2.504,0-4.535-2.03-4.535-4.535s2.031-4.535,4.535-4.535h2.834
		C39.002,11.335,41.033,13.366,41.033,15.871z"/>
	<path fill="none" stroke="#ED1C24" stroke-width="0.005" stroke-miterlimit="22.9256" d="M41.029,363.092
		c0,2.504-2.031,4.535-4.537,4.535h-2.834c-2.504,0-4.535-2.031-4.535-4.535c0-2.506,2.031-4.535,4.535-4.535h2.834
		C38.998,358.557,41.029,360.586,41.029,363.092z"/>
	<g id="LWPOLYLINE_16_">
		
			<path fill="none" stroke="#ED1C24" stroke-width="0.005" stroke-linecap="round" stroke-linejoin="round" stroke-miterlimit="10" d="
			M58.826,83.003c0,0.06,0.047,0.108,0.107,0.108s0.107-0.048,0.107-0.108"/>
	</g>
	<g id="LWPOLYLINE_15_">
		
			<path fill="none" stroke="#ED1C24" stroke-width="0.005" stroke-linecap="round" stroke-linejoin="round" stroke-miterlimit="10" d="
			M36.145,332.933c4.934,0,8.932-4,8.932-8.934c0-4.932-3.998-8.932-8.932-8.932s-8.932,4-8.932,8.932
			C27.213,328.933,31.211,332.933,36.145,332.933"/>
	</g>
	<g id="LWPOLYLINE_14_">
		
			<path fill="none" stroke="#ED1C24" stroke-width="0.005" stroke-linecap="round" stroke-linejoin="round" stroke-miterlimit="10" d="
			M36.145,300.556c4.934,0,8.932-4,8.932-8.934c0-4.932-3.998-8.932-8.932-8.932s-8.932,4-8.932,8.932
			C27.213,296.556,31.211,300.556,36.145,300.556"/>
	</g>
	<g id="LWPOLYLINE_13_">
		
			<path fill="none" stroke="#ED1C24" stroke-width="0.005" stroke-linecap="round" stroke-linejoin="round" stroke-miterlimit="10" d="
			M36.145,268.133c4.934,0,8.932-4,8.932-8.934c0-4.932-3.998-8.932-8.932-8.932s-8.932,4-8.932,8.932
			C27.213,264.133,31.211,268.133,36.145,268.133"/>
	</g>
	<g id="LWPOLYLINE_12_">
		
			<path fill="none" stroke="#ED1C24" stroke-width="0.005" stroke-linecap="round" stroke-linejoin="round" stroke-miterlimit="10" d="
			M36.145,235.755c4.934,0,8.932-4,8.932-8.934c0-4.932-3.998-8.932-8.932-8.932s-8.932,4-8.932,8.932
			C27.213,231.755,31.211,235.755,36.145,235.755"/>
	</g>
	<g id="LWPOLYLINE_11_">
		
			<path fill="none" stroke="#ED1C24" stroke-width="0.005" stroke-linecap="round" stroke-linejoin="round" stroke-miterlimit="10" d="
			M35.259,157.459c2.662,0,4.819-2.158,4.819-4.819c0-2.661-2.157-4.819-4.819-4.819c-2.66,0-4.817,2.158-4.817,4.819
			C30.441,155.302,32.599,157.459,35.259,157.459"/>
	</g>
	<g id="LWPOLYLINE_10_">
		
			<path fill="none" stroke="#ED1C24" stroke-width="0.005" stroke-linecap="round" stroke-linejoin="round" stroke-miterlimit="10" d="
			M35.261,127.136c5.323,0,9.638-4.315,9.638-9.638s-4.314-9.638-9.638-9.638s-9.638,4.315-9.638,9.638
			S29.938,127.136,35.261,127.136"/>
	</g>
	<g id="LWPOLYLINE_9_">
		
			<path fill="none" stroke="#ED1C24" stroke-width="0.005" stroke-linecap="round" stroke-linejoin="round" stroke-miterlimit="10" d="
			M35.261,188.335c5.323,0,9.638-4.315,9.638-9.638s-4.314-9.638-9.638-9.638s-9.638,4.315-9.638,9.638
			S29.938,188.335,35.261,188.335"/>
	</g>
	<g id="LWPOLYLINE_8_">
		
			<path fill="none" stroke="#ED1C24" stroke-width="0.005" stroke-linecap="round" stroke-linejoin="round" stroke-miterlimit="10" d="
			M35.261,65.936c5.323,0,9.638-4.315,9.638-9.638s-4.314-9.638-9.638-9.638s-9.638,4.315-9.638,9.638S29.938,65.936,35.261,65.936"
			/>
	</g>
</g>
<g id="graphics">
	<g>
		<path d="M22.98,28.536c0,1.087,0.832,1.919,1.911,1.919c0.728,0,1.255-0.352,1.583-0.776l0.744,0.664
			c-0.496,0.632-1.328,1.072-2.351,1.072c-1.743,0-2.966-1.271-2.966-2.878c0-1.607,1.208-2.878,2.951-2.878
			c0.832,0,1.543,0.312,2.047,0.799l-0.696,0.736c-0.336-0.336-0.808-0.576-1.359-0.576C23.779,26.617,22.98,27.473,22.98,28.536z"
			/>
		<path d="M28.02,25.737h1.08v4.638h2.358v0.959H28.02V25.737z"/>
		<path d="M32.3,25.737h1.08v5.597H32.3V25.737z"/>
		<path d="M35.595,30.015c0.392,0,0.704,0.312,0.704,0.704s-0.312,0.696-0.704,0.696s-0.696-0.304-0.696-0.696
			S35.204,30.015,35.595,30.015z"/>
		<path d="M38.739,29.056v2.279h-1.08v-5.597h2.103c0.719,0,1.143,0.176,1.455,0.504c0.28,0.288,0.44,0.72,0.44,1.159
			c0,0.44-0.16,0.872-0.44,1.16c-0.304,0.32-0.736,0.496-1.455,0.496H38.739z M39.714,28.096c0.368,0,0.552-0.088,0.68-0.224
			c0.12-0.128,0.184-0.288,0.184-0.472c0-0.184-0.064-0.352-0.184-0.479c-0.128-0.136-0.312-0.224-0.68-0.224h-0.975v1.399H39.714z"
			/>
		<path d="M42.459,25.737h1.08v5.597h-1.08V25.737z"/>
		<path d="M45.899,26.697v1.159h1.719v0.959h-1.719v2.519h-1.08v-5.597h3.358v0.96H45.899z"/>
	</g>
	<g>
		<path d="M37.295,350.995c-0.825,0-1.438,0.676-1.438,1.502c0,0.825,0.613,1.501,1.438,1.501c0.826,0,1.439-0.676,1.439-1.501
			C38.734,351.671,38.121,350.995,37.295,350.995z"/>
		<path d="M13.476,349.146v6.75H57.17v-6.75H13.476z M15.556,354.749c-0.588,0-1.133-0.244-1.583-0.657l0.551-0.575
			c0.25,0.275,0.632,0.481,1.032,0.481c0.375,0,0.638-0.231,0.638-0.55c0-0.563-0.813-0.632-1.401-0.977
			c-0.344-0.2-0.619-0.5-0.619-0.994c0-0.782,0.72-1.232,1.445-1.232c0.444,0,0.857,0.105,1.27,0.412l-0.438,0.626
			c-0.175-0.163-0.47-0.288-0.757-0.288c-0.319,0-0.676,0.138-0.676,0.476c0,0.707,2.021,0.488,2.021,1.965
			C17.038,354.211,16.344,354.749,15.556,354.749z M18.604,354.687H17.76v-4.379h0.845V354.687z M23.486,354.687h-0.594l-2.44-2.853
			v2.853h-0.845v-4.379h0.595l2.44,2.853v-2.853h0.844V354.687z M27.182,354.687h-2.689v-4.379h2.627v0.75h-1.783v0.907h1.346v0.751
			h-1.346v1.22h1.846V354.687z M29.938,353.404h-2.064v-0.688h2.064V353.404z M32.887,354.749c-1.364,0-2.321-0.995-2.321-2.252
			c0-1.258,0.945-2.252,2.309-2.252c0.65,0,1.208,0.243,1.602,0.625l-0.544,0.576c-0.263-0.263-0.632-0.451-1.063-0.451
			c-0.832,0-1.458,0.67-1.458,1.502c0,0.851,0.65,1.501,1.495,1.501c0.569,0,0.982-0.275,1.239-0.606l0.581,0.52
			C34.338,354.405,33.688,354.749,32.887,354.749z M37.295,354.749c-1.351,0-2.283-1.007-2.283-2.252s0.933-2.252,2.283-2.252
			c1.352,0,2.284,1.007,2.284,2.252S38.646,354.749,37.295,354.749z M42.273,353.404h-2.064v-0.688h2.064V353.404z M44.359,354.749
			c-0.588,0-1.133-0.244-1.583-0.657l0.551-0.575c0.25,0.275,0.632,0.481,1.032,0.481c0.375,0,0.638-0.231,0.638-0.55
			c0-0.563-0.813-0.632-1.401-0.977c-0.344-0.2-0.619-0.5-0.619-0.994c0-0.782,0.72-1.232,1.445-1.232
			c0.444,0,0.857,0.105,1.27,0.412l-0.438,0.626c-0.175-0.163-0.47-0.288-0.757-0.288c-0.319,0-0.676,0.138-0.676,0.476
			c0,0.707,2.021,0.488,2.021,1.965C45.842,354.211,45.147,354.749,44.359,354.749z M47.409,354.687h-0.845v-4.379h0.845V354.687z
			 M52.29,354.687h-0.594l-2.44-2.853v2.853h-0.844v-4.379h0.594l2.44,2.853v-2.853h0.844V354.687z M55.985,354.687h-2.69v-4.379
			h2.628v0.75H54.14v0.907h1.346v0.751H54.14v1.22h1.846V354.687z"/>
	</g>
	<g>
		<path d="M27.057,75.205c0,1.087,0.832,1.919,1.911,1.919c0.728,0,1.255-0.352,1.583-0.776l0.744,0.664
			c-0.496,0.632-1.328,1.072-2.351,1.072c-1.743,0-2.966-1.271-2.966-2.878c0-1.607,1.208-2.878,2.951-2.878
			c0.832,0,1.543,0.312,2.047,0.799l-0.696,0.736c-0.336-0.336-0.808-0.576-1.359-0.576C27.856,73.286,27.057,74.142,27.057,75.205z
			"/>
		<path d="M32.097,72.406h1.08v4.638h2.358v0.959h-3.438V72.406z"/>
		<path d="M36.377,72.406h1.08v5.597h-1.08V72.406z"/>
		<path d="M39.816,75.725v2.279h-1.08v-5.597h2.103c0.719,0,1.143,0.176,1.455,0.504c0.28,0.288,0.44,0.72,0.44,1.159
			c0,0.44-0.16,0.872-0.44,1.16c-0.304,0.32-0.736,0.496-1.455,0.496H39.816z M40.792,74.765c0.368,0,0.552-0.088,0.68-0.224
			c0.12-0.128,0.184-0.288,0.184-0.472c0-0.184-0.064-0.352-0.184-0.479c-0.128-0.136-0.312-0.224-0.68-0.224h-0.975v1.399H40.792z"
			/>
		<path d="M44.656,75.325v-1.399h0.88v1.399h1.399v0.88h-1.399v1.399h-0.88v-1.399h-1.399v-0.88H44.656z"/>
	</g>
	<g>
		<path d="M27.057,134.536c0,1.087,0.832,1.919,1.911,1.919c0.728,0,1.255-0.352,1.583-0.776l0.744,0.664
			c-0.496,0.632-1.328,1.072-2.351,1.072c-1.743,0-2.966-1.271-2.966-2.878c0-1.607,1.208-2.878,2.951-2.878
			c0.832,0,1.543,0.312,2.047,0.799l-0.696,0.736c-0.336-0.336-0.808-0.576-1.359-0.576
			C27.856,132.617,27.057,133.473,27.057,134.536z"/>
		<path d="M32.097,131.737h1.08v4.638h2.358v0.959h-3.438V131.737z"/>
		<path d="M36.376,131.737h1.08v5.597h-1.08V131.737z"/>
		<path d="M39.816,135.056v2.279h-1.08v-5.597h2.103c0.719,0,1.143,0.176,1.455,0.504c0.28,0.288,0.44,0.72,0.44,1.159
			c0,0.44-0.16,0.872-0.44,1.16c-0.304,0.32-0.736,0.496-1.455,0.496H39.816z M40.791,134.096c0.368,0,0.552-0.088,0.68-0.224
			c0.12-0.128,0.184-0.288,0.184-0.472c0-0.184-0.064-0.352-0.184-0.479c-0.128-0.136-0.312-0.224-0.68-0.224h-0.975v1.399H40.791z"
			/>
		<path d="M44.655,134.656v-1.399h0.88v1.399h1.399v0.88h-1.399v1.399h-0.88v-1.399h-1.399v-0.88H44.655z"/>
	</g>
	<g>
		<path d="M23.099,152.754l2.039-3.351h0.759v5.597h-1.079v-3.118l-1.343,2.199h-0.751l-1.343-2.199v3.118h-1.08v-5.597h0.76
			L23.099,152.754z"/>
	</g>
	<g>
		<path d="M46.475,149.404c0.888,0,1.472,0.192,1.927,0.528c0.688,0.512,1.111,1.343,1.111,2.271c0,0.927-0.424,1.759-1.111,2.271
			c-0.456,0.336-1.04,0.528-1.927,0.528h-1.759v-5.597H46.475z M48.026,150.987c-0.312-0.392-0.768-0.624-1.431-0.624h-0.799v3.678
			h0.799c0.664,0,1.12-0.232,1.431-0.624c0.256-0.32,0.408-0.751,0.408-1.215S48.282,151.307,48.026,150.987z"/>
	</g>
	<g>
		<path d="M23.099,208.754l2.039-3.351h0.759v5.597h-1.079v-3.118l-1.343,2.199h-0.751l-1.343-2.199v3.118h-1.08v-5.597h0.76
			L23.099,208.754z"/>
	</g>
	<g>
		<path d="M46.475,205.404c0.888,0,1.472,0.192,1.927,0.528c0.688,0.512,1.111,1.343,1.111,2.271c0,0.927-0.424,1.759-1.111,2.271
			c-0.456,0.336-1.04,0.528-1.927,0.528h-1.759v-5.597H46.475z M48.026,206.987c-0.312-0.392-0.768-0.624-1.431-0.624h-0.799v3.678
			h0.799c0.664,0,1.12-0.232,1.431-0.624c0.256-0.32,0.408-0.751,0.408-1.215S48.282,207.307,48.026,206.987z"/>
	</g>
	<g>
		<path d="M27.979,243.203c0,1.087,0.832,1.919,1.911,1.919c0.728,0,1.255-0.352,1.583-0.776l0.744,0.664
			c-0.496,0.632-1.328,1.072-2.351,1.072c-1.743,0-2.966-1.271-2.966-2.878c0-1.607,1.208-2.878,2.951-2.878
			c0.832,0,1.543,0.312,2.047,0.799l-0.696,0.736c-0.336-0.336-0.808-0.576-1.359-0.576
			C28.778,241.284,27.979,242.139,27.979,243.203z"/>
		<path d="M33.019,240.404h1.08v4.638h2.358v0.959h-3.438V240.404z"/>
		<path d="M37.298,240.404h1.08v5.597h-1.08V240.404z"/>
		<path d="M40.738,243.722v2.279h-1.08v-5.597h2.103c0.719,0,1.143,0.176,1.455,0.504c0.28,0.288,0.44,0.72,0.44,1.159
			c0,0.44-0.16,0.872-0.44,1.16c-0.304,0.32-0.736,0.496-1.455,0.496H40.738z M41.713,242.763c0.368,0,0.552-0.088,0.68-0.224
			c0.12-0.128,0.184-0.288,0.184-0.472c0-0.184-0.064-0.352-0.184-0.479c-0.128-0.136-0.312-0.224-0.68-0.224h-0.975v1.399H41.713z"
			/>
		<path d="M45.577,243.322v-1.399h0.88v1.399h1.399v0.88h-1.399v1.399h-0.88v-1.399h-1.399v-0.88H45.577z"/>
	</g>
	<g>
		<path d="M18.863,310.373c1.087,0,1.919-0.832,1.919-1.911c0-0.728-0.352-1.255-0.776-1.583l0.664-0.744
			c0.632,0.496,1.072,1.328,1.072,2.351c0,1.743-1.271,2.966-2.878,2.966c-1.607,0-2.878-1.208-2.878-2.951
			c0-0.832,0.312-1.543,0.799-2.047l0.736,0.696c-0.336,0.336-0.576,0.808-0.576,1.359
			C16.944,309.574,17.799,310.373,18.863,310.373z"/>
		<path d="M16.064,305.333v-1.08h4.638v-2.358h0.959v3.438H16.064z"/>
		<path d="M16.064,301.053v-1.08h5.597v1.08H16.064z"/>
		<path d="M19.382,297.614h2.279v1.08h-5.597v-2.103c0-0.719,0.176-1.143,0.504-1.455c0.288-0.28,0.72-0.44,1.159-0.44
			c0.44,0,0.872,0.16,1.16,0.44c0.32,0.304,0.496,0.736,0.496,1.455V297.614z M18.423,296.639c0-0.368-0.088-0.552-0.224-0.68
			c-0.128-0.12-0.288-0.184-0.472-0.184c-0.184,0-0.352,0.064-0.479,0.184c-0.136,0.128-0.224,0.312-0.224,0.68v0.975h1.399V296.639
			z"/>
		<path d="M18.982,292.774h-1.399v-0.88h1.399v-1.399h0.88v1.399h1.399v0.88h-1.399v1.399h-0.88V292.774z"/>
		<path d="M20.166,287.35c0.352-0.32,0.616-0.808,0.616-1.319c0-0.479-0.296-0.815-0.704-0.815c-0.72,0-0.808,1.04-1.248,1.791
			c-0.256,0.44-0.64,0.792-1.271,0.792c-1,0-1.575-0.919-1.575-1.847c0-0.568,0.136-1.096,0.528-1.623l0.799,0.56
			c-0.208,0.224-0.368,0.6-0.368,0.967c0,0.408,0.176,0.864,0.607,0.864c0.904,0,0.624-2.583,2.511-2.583
			c0.991,0,1.679,0.888,1.679,1.895c0,0.752-0.312,1.447-0.84,2.023L20.166,287.35z"/>
		<path d="M21.166,282.574c-0.416,0.464-1.008,0.72-1.863,0.72h-3.238v-1.08h3.318c0.512,0,0.824-0.136,1.04-0.368
			c0.232-0.24,0.36-0.576,0.36-0.952c0-0.375-0.128-0.711-0.36-0.951c-0.216-0.232-0.528-0.368-1.04-0.368h-3.318v-1.08h3.238
			c0.855,0,1.447,0.256,1.863,0.72c0.384,0.432,0.576,1.047,0.576,1.679C21.741,281.527,21.549,282.143,21.166,282.574z"/>
		<path d="M19.415,274.456l-3.351-2.039v-0.759h5.597v1.079h-3.118l2.199,1.343v0.751l-2.199,1.343h3.118v1.08h-5.597v-0.76
			L19.415,274.456z"/>
	</g>
	<g>
		<path d="M53.333,189.162c0.352-0.32,0.616-0.808,0.616-1.319c0-0.479-0.296-0.815-0.704-0.815c-0.72,0-0.808,1.04-1.248,1.791
			c-0.256,0.44-0.64,0.792-1.271,0.792c-1,0-1.575-0.919-1.575-1.847c0-0.568,0.136-1.096,0.528-1.623l0.799,0.56
			c-0.208,0.224-0.368,0.6-0.368,0.967c0,0.408,0.176,0.864,0.607,0.864c0.904,0,0.624-2.583,2.511-2.583
			c0.991,0,1.679,0.888,1.679,1.895c0,0.752-0.312,1.447-0.84,2.023L53.333,189.162z"/>
		<path d="M52.293,182.747h2.535v1.08h-2.535l-3.062,1.919v-1.231l1.967-1.231l-1.967-1.224v-1.231L52.293,182.747z"/>
		<path d="M52.582,177.348l-3.351-2.039v-0.76h5.597v1.08H51.71l2.199,1.343v0.751l-2.199,1.343h3.118v1.08h-5.597v-0.76
			L52.582,177.348z"/>
	</g>
	<g>
		<path d="M21.911,189.695l-5.597-2.398v-0.76l5.597-2.399v1.127l-1.239,0.528v2.247l1.239,0.528V189.695z M19.712,187.632v-1.423
			l-1.655,0.712L19.712,187.632z"/>
		<path d="M20.416,183.112c0.352-0.32,0.616-0.808,0.616-1.319c0-0.479-0.296-0.815-0.704-0.815c-0.72,0-0.808,1.04-1.248,1.791
			c-0.256,0.44-0.64,0.792-1.271,0.792c-1,0-1.575-0.919-1.575-1.847c0-0.568,0.136-1.096,0.528-1.623l0.799,0.56
			c-0.208,0.224-0.368,0.6-0.368,0.967c0,0.408,0.176,0.864,0.607,0.864c0.904,0,0.624-2.583,2.511-2.583
			c0.991,0,1.679,0.888,1.679,1.895c0,0.752-0.312,1.447-0.84,2.023L20.416,183.112z"/>
		<path d="M19.376,176.697h2.535v1.079h-2.535l-3.062,1.919v-1.231l1.967-1.231l-1.967-1.224v-1.231L19.376,176.697z"/>
		<path d="M19.665,171.297l-3.351-2.039v-0.759h5.597v1.079h-3.118l2.199,1.343v0.751l-2.199,1.343h3.118v1.08h-5.597v-0.76
			L19.665,171.297z"/>
	</g>
	<g>
		<path d="M28.378,274.87c0,1.087,0.832,1.919,1.911,1.919c0.728,0,1.255-0.352,1.583-0.776l0.744,0.664
			c-0.496,0.632-1.328,1.072-2.351,1.072c-1.743,0-2.966-1.271-2.966-2.878c0-1.607,1.208-2.878,2.951-2.878
			c0.832,0,1.543,0.312,2.047,0.799l-0.696,0.736c-0.336-0.336-0.808-0.576-1.359-0.576
			C29.178,272.951,28.378,273.806,28.378,274.87z"/>
		<path d="M33.418,272.071h1.08v4.638h2.358v0.959h-3.438V272.071z"/>
		<path d="M37.698,272.071h1.08v5.597h-1.08V272.071z"/>
		<path d="M41.138,275.389v2.279h-1.08v-5.597h2.103c0.719,0,1.143,0.176,1.455,0.504c0.28,0.288,0.44,0.72,0.44,1.159
			c0,0.44-0.16,0.872-0.44,1.16c-0.304,0.32-0.736,0.496-1.455,0.496H41.138z M42.113,274.43c0.368,0,0.552-0.088,0.68-0.224
			c0.12-0.128,0.184-0.288,0.184-0.472c0-0.184-0.064-0.352-0.184-0.479c-0.128-0.136-0.312-0.224-0.68-0.224h-0.975v1.399H42.113z"
			/>
		<path d="M47.256,275.149v0.879h-2.639v-0.879H47.256z"/>
	</g>
	<g>
		<path d="M32.892,305.071h1.08v5.597h-1.08V305.071z"/>
		<path d="M35.252,305.071h0.76l3.118,3.646v-3.646h1.08v5.597h-0.76l-3.118-3.646v3.646h-1.08V305.071z"/>
	</g>
	<g>
		<path d="M30.277,337.324c1.727,0,2.918,1.287,2.918,2.878c0,1.591-1.191,2.878-2.918,2.878s-2.918-1.288-2.918-2.878
			C27.359,338.611,28.55,337.324,30.277,337.324z M30.277,342.122c1.056,0,1.839-0.864,1.839-1.919c0-1.056-0.783-1.919-1.839-1.919
			c-1.055,0-1.839,0.863-1.839,1.919C28.438,341.258,29.222,342.122,30.277,342.122z"/>
		<path d="M34.798,342.505c-0.464-0.416-0.72-1.008-0.72-1.863v-3.238h1.08v3.318c0,0.512,0.136,0.824,0.368,1.04
			c0.24,0.232,0.576,0.36,0.952,0.36c0.375,0,0.711-0.128,0.951-0.36c0.232-0.216,0.368-0.528,0.368-1.04v-3.318h1.079v3.238
			c0,0.855-0.256,1.447-0.72,1.863c-0.432,0.384-1.047,0.576-1.679,0.576C35.846,343.081,35.23,342.889,34.798,342.505z"/>
		<path d="M43.717,337.404v0.96h-1.479v4.637h-1.079v-4.637h-1.479v-0.96H43.717z"/>
	</g>
	<g>
		<path d="M27.457,195.87c0,1.087,0.832,1.919,1.911,1.919c0.728,0,1.255-0.352,1.583-0.776l0.744,0.664
			c-0.496,0.632-1.328,1.072-2.351,1.072c-1.743,0-2.966-1.271-2.966-2.878c0-1.607,1.208-2.878,2.951-2.878
			c0.832,0,1.543,0.312,2.047,0.799l-0.696,0.736c-0.336-0.336-0.808-0.576-1.359-0.576
			C28.256,193.951,27.457,194.806,27.457,195.87z"/>
		<path d="M32.497,193.071h1.08v4.638h2.358v0.959h-3.438V193.071z"/>
		<path d="M36.776,193.071h1.08v5.597h-1.08V193.071z"/>
		<path d="M40.216,196.389v2.279h-1.08v-5.597h2.103c0.719,0,1.143,0.176,1.455,0.504c0.28,0.288,0.44,0.72,0.44,1.159
			c0,0.44-0.16,0.872-0.44,1.16c-0.304,0.32-0.736,0.496-1.455,0.496H40.216z M41.191,195.43c0.368,0,0.552-0.088,0.68-0.224
			c0.12-0.128,0.184-0.288,0.184-0.472c0-0.184-0.064-0.352-0.184-0.479c-0.128-0.136-0.312-0.224-0.68-0.224h-0.975v1.399H41.191z"
			/>
		<path d="M46.334,196.149v0.879h-2.639v-0.879H46.334z"/>
	</g>
	<g>
		<path d="M13.978,36.516h0.974l1.337,3.348l1.345-3.348h0.974l-1.981,4.903h-0.666L13.978,36.516z"/>
		<path d="M19.654,38.968c0,0.952,0.729,1.681,1.674,1.681c0.638,0,1.1-0.308,1.387-0.679l0.651,0.581
			c-0.434,0.554-1.162,0.938-2.059,0.938c-1.527,0-2.599-1.113-2.599-2.521s1.058-2.521,2.585-2.521c0.728,0,1.352,0.273,1.793,0.7
			l-0.609,0.645c-0.295-0.294-0.708-0.504-1.191-0.504C20.355,37.287,19.654,38.036,19.654,38.968z"/>
		<path d="M26.549,38.968c0,0.952,0.729,1.681,1.674,1.681c0.638,0,1.1-0.308,1.387-0.679l0.651,0.581
			c-0.434,0.554-1.162,0.938-2.059,0.938c-1.527,0-2.599-1.113-2.599-2.521s1.058-2.521,2.585-2.521c0.728,0,1.352,0.273,1.793,0.7
			l-0.609,0.645c-0.295-0.294-0.708-0.504-1.191-0.504C27.25,37.287,26.549,38.036,26.549,38.968z"/>
		<path d="M30.959,36.516h0.945v4.062h2.066v0.84h-3.012V36.516z"/>
		<path d="M34.704,36.516h0.945v4.903h-0.945V36.516z"/>
		<path d="M37.715,39.423v1.996H36.77v-4.903h1.842c0.63,0,1.002,0.154,1.274,0.441c0.245,0.252,0.386,0.63,0.386,1.016
			s-0.141,0.763-0.386,1.016c-0.266,0.28-0.645,0.434-1.274,0.434H37.715z M38.569,38.583c0.322,0,0.483-0.077,0.596-0.196
			c0.104-0.112,0.16-0.252,0.16-0.413s-0.056-0.308-0.16-0.42c-0.112-0.119-0.273-0.196-0.596-0.196h-0.854v1.226H38.569z"/>
		<path d="M41.88,39.423v1.996h-0.945v-4.903h1.842c0.63,0,1.002,0.154,1.274,0.441c0.245,0.252,0.386,0.63,0.386,1.016
			s-0.141,0.763-0.386,1.016c-0.266,0.28-0.645,0.434-1.274,0.434H41.88z M42.734,38.583c0.322,0,0.483-0.077,0.596-0.196
			c0.104-0.112,0.16-0.252,0.16-0.413s-0.056-0.308-0.16-0.42c-0.112-0.119-0.273-0.196-0.596-0.196H41.88v1.226H42.734z"/>
		<path d="M45.135,36.516h0.945v4.903h-0.945V36.516z"/>
		<path d="M47.2,36.516h0.665l2.731,3.194v-3.194h0.945v4.903h-0.665l-2.731-3.194v3.194H47.2V36.516z"/>
		<path d="M53.255,38.968c0,0.952,0.729,1.681,1.674,1.681c0.448,0,0.812-0.154,1.093-0.378v-1.058h-1.261v-0.841h2.206v2.178
			c-0.434,0.554-1.162,0.938-2.059,0.938c-1.527,0-2.599-1.113-2.599-2.521s1.058-2.521,2.585-2.521c0.728,0,1.352,0.273,1.793,0.7
			l-0.609,0.645c-0.295-0.294-0.708-0.504-1.191-0.504C53.956,37.287,53.255,38.036,53.255,38.968z"/>
	</g>
	<g>
		<path d="M35.26,200.241c-4.285,0-7.76,3.475-7.76,7.758c0,4.285,3.475,7.762,7.76,7.762s7.76-3.477,7.76-7.762
			C43.02,203.716,39.545,200.241,35.26,200.241z M35.26,213.831c-3.222,0-5.832-2.609-5.832-5.832c0-3.221,2.61-5.831,5.832-5.831
			c3.221,0,5.832,2.61,5.832,5.831C41.092,211.222,38.48,213.831,35.26,213.831z"/>
		<polygon points="36.66,205.521 38.131,208.066 36.66,210.612 33.721,210.612 32.252,208.066 33.721,205.521 		"/>
	</g>
	<g>
		<g>
			
				<line fill="none" stroke="#000000" stroke-linecap="square" stroke-miterlimit="10" x1="18.66" y1="259.2" x2="21.572" y2="259.2"/>
			<g>
				<polygon points="20.843,261.693 25.16,259.2 20.843,256.707 				"/>
			</g>
		</g>
	</g>
	
		<line fill="none" stroke="#000000" stroke-linecap="square" stroke-miterlimit="10" x1="18.66" y1="259.2" x2="18.66" y2="268.133"/>
	<circle cx="25.095" cy="187.987" r="1.042"/>
	<circle cx="44.898" cy="187.987" r="1.042"/>
</g>
</svg>
