M48
;GenerationSoftware,Autodesk,EAGLE,9.3.1*%
;CreationDate,2021-08-09T14:16:03Z*%
FMAT,2
ICI,OFF
METRIC,TZ,000.000
T9C0.500
T8C0.600
T7C0.610
T6C0.700
T5C0.800
T4C0.813
T3C0.900
T2C1.016
T1C3.000
%
G90
M71
T1
X-7302Y68580
X7302Y68580
T2
X-7620Y1270
X-10160Y1270
X-12700Y1270
X12700Y1270
X10160Y1270
X7620Y1270
X5080Y1270
X2540Y1270
X-13970Y63182
X-11430Y63182
X-11430Y60642
X-13970Y60642
X-11430Y58102
X-13970Y58102
X-11430Y55562
X-13970Y55562
X-11430Y53022
X13652Y56515
X13652Y53975
X-5080Y1270
X-2540Y1270
X13652Y51435
X13652Y48895
X13652Y46355
X-1587Y56515
X-1587Y53975
X-1587Y51435
X-1587Y48895
X-1587Y46355
X-13970Y53022
T3
X4803Y73978
X7302Y73978
X9803Y73978
X4803Y95567
X7302Y95567
X9803Y95567
X4803Y52387
X7302Y52387
X9803Y52387
T4
X-13652Y46037
X-11112Y46037
X-4763Y43180
X-7302Y43180
X-4763Y64135
X-4763Y56515
X-6667Y54610
X-6667Y46990
X-11430Y13017
X-11430Y15557
X-11430Y18098
X-11430Y20638
X-11430Y23177
X-11430Y25717
X-3810Y23177
X-3810Y25717
X-3810Y20638
X-3810Y18098
X-11430Y28257
X-3810Y28257
X-3810Y15557
X-3810Y13017
X-8890Y9525
X-8890Y4445
X-11430Y9525
X-11430Y4445
X-6350Y4445
X-6350Y9525
X-3810Y4445
X-3810Y9525
X-13970Y18098
X-13970Y13017
X-1587Y18415
X-1587Y13335
T5
X-2223Y65723
X-2223Y60642
X-7302Y62865
X-7302Y57785
T6
X-13970Y4445
X-13970Y9525
X-8573Y31115
X-8573Y36195
X1587Y94297
X1587Y89217
X-1587Y22225
X-1587Y27305
X-1587Y34925
X-1587Y29845
X13017Y93980
X13017Y88900
X-9208Y47942
X-9208Y53022
X-4128Y53022
X-4128Y47942
X-13970Y29845
X-13970Y34925
X-13970Y27305
X-13970Y22225
X-1587Y9525
X-1587Y4445
X-11112Y31115
X-11112Y36195
X-13970Y42545
X-13970Y37465
X-1587Y37465
X-1587Y42545
X-3810Y36195
X-3810Y31115
X-6350Y31115
X-6350Y36195
T7
X4763Y88265
X9525Y89217
X-8890Y20638
X-8255Y28257
X-9208Y40323
X10478Y100330
X5398Y80010
X-5080Y39053
X9843Y82550
X7302Y61277
X1905Y49530
X6985Y42228
X-12382Y39053
X-13017Y49530
X7302Y31432
X7937Y8890
X-7937Y50165
X-13017Y69850
X3810Y13652
X-2857Y11430
X-5715Y19685
T8
X1802Y102567
X1802Y59387
X12802Y59387
X1802Y80978
X12802Y80978
X12802Y102567
T9
X7620Y27180
X12320Y30480
X2920Y30480
X2920Y41910
X12320Y41910
X7620Y12520
X7620Y4320
X12320Y7620
X2920Y7620
X7620Y38610
X7620Y46810
X7620Y23950
X7620Y15750
X12320Y19050
X2920Y19050
X7620Y35380
M30