G04 EAGLE Gerber RS-274X export*
G75*
%MOMM*%
%FSLAX34Y34*%
%LPD*%
%INSoldermask Bottom*%
%IPPOS*%
%AMOC8*
5,1,8,0,0,1.08239X$1,22.5*%
G01*
%ADD10C,3.203200*%
%ADD11P,1.527469X8X112.500000*%
%ADD12P,1.527469X8X292.500000*%
%ADD13C,2.082800*%
%ADD14P,1.649562X8X292.500000*%
%ADD15P,1.924489X8X202.500000*%
%ADD16C,1.778000*%
%ADD17P,1.924489X8X22.500000*%
%ADD18P,2.034460X8X292.500000*%
%ADD19P,2.034460X8X202.500000*%
%ADD20P,2.034460X8X22.500000*%
%ADD21P,1.649562X8X112.500000*%
%ADD22C,1.727200*%
%ADD23C,1.473200*%
%ADD24P,1.649562X8X202.500000*%
%ADD25C,1.625600*%
%ADD26C,1.803200*%
%ADD27P,2.034460X8X112.500000*%
%ADD28P,1.319650X8X22.500000*%


D10*
X73025Y685800D03*
X-73025Y685800D03*
D11*
X-92075Y479425D03*
X-92075Y530225D03*
D12*
X-41275Y530225D03*
X-41275Y479425D03*
D13*
X-73025Y577850D03*
X-73025Y628650D03*
X-22225Y606425D03*
X-22225Y657225D03*
D14*
X-66675Y469900D03*
X-66675Y546100D03*
X-47625Y565150D03*
X-47625Y641350D03*
D15*
X-73025Y431800D03*
D16*
X-47625Y431800D03*
D17*
X-111125Y460375D03*
D16*
X-136525Y460375D03*
D18*
X-114300Y631825D03*
X-139700Y631825D03*
X-114300Y606425D03*
X-139700Y606425D03*
X-114300Y581025D03*
X-139700Y581025D03*
X-114300Y555625D03*
X-139700Y555625D03*
X-114300Y530225D03*
X-139700Y530225D03*
D19*
X-15875Y463550D03*
X-15875Y488950D03*
X-15875Y514350D03*
X-15875Y539750D03*
X-15875Y565150D03*
D20*
X136525Y463550D03*
X136525Y488950D03*
X136525Y514350D03*
X136525Y539750D03*
X136525Y565150D03*
D11*
X-15875Y298450D03*
X-15875Y349250D03*
D12*
X-15875Y273050D03*
X-15875Y222250D03*
D21*
X-88900Y95250D03*
X-88900Y44450D03*
X-114300Y95250D03*
X-114300Y44450D03*
D11*
X-139700Y298450D03*
X-139700Y349250D03*
D12*
X-139700Y273050D03*
X-139700Y222250D03*
D21*
X-139700Y180975D03*
X-139700Y130175D03*
X-15875Y184150D03*
X-15875Y133350D03*
X-38100Y95250D03*
X-38100Y44450D03*
X-63500Y95250D03*
X-63500Y44450D03*
D11*
X-139700Y44450D03*
X-139700Y95250D03*
D22*
X29200Y83820D02*
X29200Y68580D01*
D23*
X123200Y69850D02*
X123200Y82550D01*
D22*
X83820Y43200D02*
X68580Y43200D01*
X68580Y125200D02*
X83820Y125200D01*
D24*
X-38100Y130175D03*
X-38100Y155575D03*
X-38100Y282575D03*
X-114300Y282575D03*
X-38100Y180975D03*
X-38100Y206375D03*
X-38100Y257175D03*
X-38100Y231775D03*
X-114300Y257175D03*
X-114300Y231775D03*
X-114300Y206375D03*
X-114300Y180975D03*
X-114300Y155575D03*
X-114300Y130175D03*
D22*
X29200Y411480D02*
X29200Y426720D01*
D23*
X123200Y425450D02*
X123200Y412750D01*
D22*
X83820Y386100D02*
X68580Y386100D01*
X68580Y468100D02*
X83820Y468100D01*
D25*
X48025Y739775D03*
X73025Y739775D03*
X98025Y739775D03*
D26*
X18025Y801775D02*
X18025Y817775D01*
X128025Y817775D02*
X128025Y801775D01*
D25*
X48025Y955675D03*
X73025Y955675D03*
X98025Y955675D03*
D26*
X18025Y1017675D02*
X18025Y1033675D01*
X128025Y1033675D02*
X128025Y1017675D01*
D12*
X-63500Y361950D03*
X-63500Y311150D03*
D11*
X-38100Y311150D03*
X-38100Y361950D03*
D12*
X-15875Y425450D03*
X-15875Y374650D03*
D22*
X29200Y198120D02*
X29200Y182880D01*
D23*
X123200Y184150D02*
X123200Y196850D01*
D22*
X83820Y157500D02*
X68580Y157500D01*
X68580Y239500D02*
X83820Y239500D01*
D11*
X-139700Y374650D03*
X-139700Y425450D03*
D12*
X-111125Y361950D03*
X-111125Y311150D03*
D11*
X-15875Y44450D03*
X-15875Y95250D03*
D22*
X29200Y297180D02*
X29200Y312420D01*
D23*
X123200Y311150D02*
X123200Y298450D01*
D22*
X83820Y271800D02*
X68580Y271800D01*
X68580Y353800D02*
X83820Y353800D01*
D25*
X48025Y523875D03*
X73025Y523875D03*
X98025Y523875D03*
D26*
X18025Y585875D02*
X18025Y601875D01*
X128025Y601875D02*
X128025Y585875D01*
D11*
X130175Y889000D03*
X130175Y939800D03*
X15875Y892175D03*
X15875Y942975D03*
D12*
X-85725Y361950D03*
X-85725Y311150D03*
D18*
X25400Y12700D03*
X50800Y12700D03*
X76200Y12700D03*
X101600Y12700D03*
X127000Y12700D03*
D27*
X-127000Y12700D03*
X-101600Y12700D03*
X-76200Y12700D03*
X-50800Y12700D03*
X-25400Y12700D03*
D28*
X47625Y882650D03*
X95250Y892175D03*
X104775Y1003300D03*
X53975Y800100D03*
X98425Y825500D03*
X73025Y612775D03*
X19050Y495300D03*
X69850Y422275D03*
X73025Y314325D03*
X79375Y88900D03*
X38100Y136525D03*
X-28575Y114300D03*
X-57150Y196850D03*
X-88900Y206375D03*
X-82550Y282575D03*
X-92075Y403225D03*
X-50800Y390525D03*
X-123825Y390525D03*
X-130175Y495300D03*
X-79375Y501650D03*
X-130175Y698500D03*
M02*
